<svg width="1624" height="1080" viewBox="0 0 1624 1080" fill="none" xmlns="http://www.w3.org/2000/svg">
<path d="M437 394.5C607 273.7 688.167 111.5 707.5 45.5L895.5 -37.5C1010.17 -22.8333 1244.4 14.3 1264 45.5C1288.5 84.5 1230 174.5 1159 182C1088 189.5 912.5 394.5 854 458C795.5 521.5 788 836 637 880C486 924 307.5 860.5 271 765.5C234.5 670.5 224.5 545.5 437 394.5Z" fill="#AEF5FF" fill-opacity="0.29"/>
<path d="M297.15 411.797C568.042 239.882 697.379 9.0481 728.186 -84.8792L1027.76 -203C1210.48 -182.127 1583.72 -129.281 1614.96 -84.8792C1654 -29.3767 1560.78 98.706 1447.64 109.38C1334.5 120.053 1054.85 411.797 961.631 502.167C868.412 592.536 856.461 1040.11 615.846 1102.73C375.231 1165.35 90.7949 1074.98 32.6329 939.783C-25.529 804.584 -41.4638 626.692 297.15 411.797Z" fill="#AEF5FF" fill-opacity="0.29"/>
</svg>
